HIERARCHY
ROOT Hips
{
  OFFSET -32.5998 29.0326 120.673
  CHANNELS 6 Xposition Yposition Zposition Zrotation Xrotation Yrotation
  JOINT LeftUpLeg
  {
    OFFSET 8.64259 1.95398 -2.38835
    CHANNELS 3 Zrotation Xrotation Yrotation
    JOINT LeftLeg
    {
      OFFSET 43.7702 0 0
      CHANNELS 3 Zrotation Xrotation Yrotation
      JOINT LeftFoot
      {
        OFFSET 40.6238 0 0
        CHANNELS 3 Zrotation Xrotation Yrotation
        JOINT LeftToeBase
        {
          OFFSET 12.7242 0 0
          CHANNELS 3 Zrotation Xrotation Yrotation
          End Site
          {
            OFFSET 0 0 0
          }
        }
      }
    }
  }
  JOINT RightUpLeg
  {
    OFFSET -8.2249 1.95398 -2.59336
    CHANNELS 3 Zrotation Xrotation Yrotation
    JOINT RightLeg
    {
      OFFSET 43.5653 0 0
      CHANNELS 3 Zrotation Xrotation Yrotation
      JOINT RightFoot
      {
        OFFSET 40.6238 0 0
        CHANNELS 3 Zrotation Xrotation Yrotation
        JOINT RightToeBase
        {
          OFFSET 12.7242 0 0
          CHANNELS 3 Zrotation Xrotation Yrotation
          End Site
          {
            OFFSET 0 0 0
          }
        }
      }
    }
  }
  JOINT Spine
  {
    OFFSET 0.165834 0.87714 6.61349
    CHANNELS 3 Zrotation Xrotation Yrotation
    JOINT Spine1
    {
      OFFSET 7.38963 1.71661e-005 0
      CHANNELS 3 Zrotation Xrotation Yrotation
      JOINT Spine2
      {
        OFFSET 11.9445 1.14441e-005 0
        CHANNELS 3 Zrotation Xrotation Yrotation
        JOINT Spine3
        {
          OFFSET 14.7254 4.19617e-005 0
          CHANNELS 3 Zrotation Xrotation Yrotation
          JOINT Spine4
          {
            OFFSET 10.9679 0 0
            CHANNELS 3 Zrotation Xrotation Yrotation
            JOINT RightShoulder
            {
              OFFSET 2.46616 -1.6653 3.69651
              CHANNELS 3 Zrotation Xrotation Yrotation
              JOINT RightArm
              {
                OFFSET 13.0012 0 0
                CHANNELS 3 Zrotation Xrotation Yrotation
                JOINT RightForeArm
                {
                  OFFSET 28.7848 1.62311e-005 0
                  CHANNELS 3 Zrotation Xrotation Yrotation
                  JOINT RightHand
                  {
                    OFFSET 26.5688 1.62095e-005 0
                    CHANNELS 3 Zrotation Xrotation Yrotation
                    End Site
                    {
                      OFFSET 0 0 0
                    }
                  }
                }
              }
            }
            JOINT LeftShoulder
            {
              OFFSET 2.38034 -1.29275 -3.7523
              CHANNELS 3 Zrotation Xrotation Yrotation
              JOINT LeftArm
              {
                OFFSET 16.3182 6.07031e-005 0
                CHANNELS 3 Zrotation Xrotation Yrotation
                JOINT LeftForeArm
                {
                  OFFSET 27.0901 0 0
                  CHANNELS 3 Zrotation Xrotation Yrotation
                  JOINT LeftHand
                  {
                    OFFSET 24.5451 1.51738e-005 0
                    CHANNELS 3 Zrotation Xrotation Yrotation
                    End Site
                    {
                      OFFSET 0 0 0
                    }
                  }
                }
              }
            }
            JOINT Neck
            {
              OFFSET 5.0226 -0.0266342 0
              CHANNELS 3 Zrotation Xrotation Yrotation
              JOINT Head
              {
                OFFSET 6.69364 2.86102e-005 0
                CHANNELS 3 Zrotation Xrotation Yrotation
                End Site
                {
                  OFFSET 0 0 0
                }
              }
            }
          }
        }
      }
    }
  }
}
MOTION
Frames:	6
Frame Time:	0.0416667
-8049.09 440.225 -7440.59 101.516 -49.1415 97.9943 -174.88 5.12251 151.403 -4.13391 8.1033 -14.5214 70.772 -39.9796 -28.612 4.81954 19.2928 -47.5999 178.533 15.7367 32.0913 -0.678736 -27.0196 13.4213 71.3393 37.3663 14.3546 14.1641 -8.77233 42.4636 -0.0359006 8.00317 -90.0642 10.845 -0.101115 -0.118348 -0.825974 -0.106226 -0.113792 -23.3611 -0.0608714 -0.143271 -3.34845 -0.0608776 -0.143262 93.6582 -19.6136 -102.846 54.8735 -11.718 -18.0938 -16.1682 -41.3493 -29.5069 -1.00598 -0.0232814 -6.34984 -84.6045 -51.0195 86.9614 -26.9466 13.1176 -14.8734 -2.97275 12.2221 -21.3252 3.64389 -0.00620529 -2.76548 18.2507 -8.01271 3.44171 -18.0397 -7.97593 -6.55445 
-8048.52 439.908 -7440.78 101.445 -49.6628 98.2469 -174.574 4.83477 151.788 -4.18712 7.65658 -14.5982 70.892 -39.9578 -28.4304 -2.19537 21.0511 -49.439 178.911 15.9174 32.6286 -1.00781 -26.9507 13.0245 71.3689 37.2764 14.7999 13.9176 -8.68195 42.228 0.0316961 8.00256 -90.118 10.8632 0.00861169 -0.23549 -0.807808 -0.00175486 -0.235643 -23.3428 0.078975 -0.22201 -3.33016 0.0790017 -0.222016 93.6836 -19.4253 -102.859 54.9107 -12.2513 -18.2834 -16.5065 -43.0176 -28.9831 6.05025 -0.395599 -10.6082 -84.5924 -51.2463 87.0067 -26.9925 13.065 -14.9369 -3.13193 11.4655 -21.1225 3.6922 -0.153895 -5.11699 18.3656 -7.86022 3.57823 -17.8647 -7.8348 -6.91329 
-8048.67 440.281 -7440.43 101.558 -49.5388 98.3654 -174.601 4.81888 151.828 -4.2099 7.7567 -14.5382 70.9757 -39.9472 -28.4527 8.5545 18.5315 -45.7184 178.833 15.736 32.6916 -1.17275 -26.3294 12.8784 71.5183 37.1116 15.1928 13.5577 -8.64192 42.1565 0.0201951 8.00315 -90.1618 10.8682 -0.0345769 -0.318638 -0.802766 -0.0485891 -0.316818 -23.3376 0.0627732 -0.314306 -3.32497 0.0627799 -0.31431 93.6075 -19.2074 -103.129 54.6837 -13.6355 -18.5872 -17.2667 -47.1852 -28.3619 20.4088 -3.10117 -21.0103 -84.6066 -51.6497 87.0338 -27.004 12.9421 -14.9374 -2.23402 13.5913 -21.1141 0.927638 -0.0306981 -2.56967 18.3485 -7.71334 3.85147 -17.5304 -7.79382 -6.90123 
-8048.33 439.687 -7439.94 101.63 -49.4806 98.3877 -174.63 4.83237 151.677 -4.21488 7.78791 -14.5028 70.7259 -39.9076 -28.7302 7.02419 13.7379 -38.2119 178.894 15.5386 32.6637 -1.5635 -25.3181 12.5396 71.7745 36.8679 15.9886 12.8837 -8.51737 41.8837 0.0218457 8.00424 -90.186 10.8652 -0.0423507 -0.365936 -0.805828 -0.0584255 -0.363707 -23.3406 0.069564 -0.361751 -3.32794 0.0695722 -0.361743 93.5583 -19.1091 -103.287 54.6419 -14.6819 -18.4264 -18.7423 -50.2523 -29.014 30.6074 -6.96182 -29.4979 -84.6346 -51.7822 87.0082 -27.0431 12.9688 -14.9433 -2.04373 14.1455 -21.2715 0.894762 -0.0188323 -1.83192 18.3279 -7.77294 3.97102 -17.2846 -7.97473 -6.29501 
-8048.55 440.492 -7439.95 101.231 -49.2903 98.1172 -174.709 5.15031 151.843 -4.17791 7.97823 -14.4915 71.1894 -39.9261 -28.3347 6.4449 14.1033 -38.7486 178.879 15.4253 32.8292 -2.01671 -23.7381 12.148 71.9218 36.4816 17.0183 12.561 -8.44831 41.7309 -0.010654 7.97743 -90.233 10.9185 -0.128908 -0.451294 -0.752494 -0.148657 -0.445186 -23.287 0.0126713 -0.469171 -3.27437 0.0126795 -0.469178 93.5825 -18.7956 -103.356 54.5049 -14.8409 -18.525 -17.8631 -49.4926 -28.4103 30.4295 -6.70816 -28.8221 -84.6342 -52.1193 87.0488 -27.078 12.8462 -14.8936 -2.04216 13.9824 -21.2918 0.958725 -0.00347845 -1.37715 18.4006 -7.61145 4.37428 -17.5346 -7.91124 -6.42496 
-8048.03 440.434 -7438.74 101.239 -49.1602 97.8873 -174.645 5.14669 151.615 -4.09229 8.13326 -14.5809 71.1409 -39.9231 -28.4602 6.47343 13.8749 -38.3504 178.699 15.2251 32.7891 -2.44533 -22.0282 11.4897 72.0083 36.3044 18.507 11.3334 -8.34762 41.6134 -0.0177132 7.98491 -90.1935 10.9023 -0.124974 -0.374324 -0.768723 -0.141328 -0.368461 -23.3034 -0.00669549 -0.394573 -3.2908 -0.00670324 -0.394583 93.5369 -18.8491 -103.444 54.6742 -12.6462 -18.4016 -15.5242 -43.1471 -27.8544 10.0147 -1.14324 -12.7788 -84.6171 -52.004 87.0606 -27.1105 12.8314 -14.8766 -1.85676 14.5304 -21.3392 0.880868 0.0151061 -0.574065 18.2913 -7.61849 4.17946 -17.5487 -7.86927 -6.31943 
